Coordinates
version=1
nRows=19
nColumns=24
inDegrees=yes

Units are S.I. units (second, meters, Newtons, ...)
Angles are in degrees.

endheader
time	pelvis_tilt	pelvis_list	pelvis_rotation	pelvis_tx	pelvis_ty	pelvis_tz	hip_flexion_r	hip_adduction_r	hip_rotation_r	knee_angle_r	ankle_angle_r	subtalar_angle_r	mtp_angle_r	hip_flexion_l	hip_adduction_l	hip_rotation_l	knee_angle_l	ankle_angle_l	subtalar_angle_l	mtp_angle_l	lumbar_extension	lumbar_bending	lumbar_rotation
      1.74150000	      0.19160902	      6.14654482	     -1.47471905	      1.43807707	      1.02006766	      0.29187655	     14.33572552	     -5.58812601	      1.41924635	    -62.62460360	      5.35045089	    -16.07006326	     -0.17944598	      4.95443906	     11.43059830	      1.85796445	     -7.86293390	      0.42322738	    -17.86257250	      2.65025304	     -0.88123780	     -6.85853149	      4.96391913
      1.74566667	      0.14842493	      6.04829637	     -1.16238515	      1.44281853	      1.02053630	      0.29130186	     14.82192080	     -5.48587118	      1.20670943	    -62.13702809	      5.50240981	    -16.13641977	     -0.20261196	      4.53890038	     11.36053687	      2.17659212	     -7.61205193	      0.50094816	    -17.74079734	      2.63482960	     -0.87827444	     -6.74567450	      4.88128953
      1.74983333	      0.12235428	      5.94063935	     -0.85605426	      1.44751626	      1.02100107	      0.29075171	     15.28259936	     -5.36566094	      1.02265787	    -61.61845722	      5.58651687	    -16.24263897	     -0.26191506	      4.08910361	     11.28153739	      2.57809923	     -7.32494772	      0.59786815	    -17.76455335	      2.59448951	     -0.90759972	     -6.63274402	      4.54573313
      1.75400000	      0.10146329	      5.85890068	     -0.56847924	      1.45223356	      1.02142057	      0.29019881	     15.74221498	     -5.29186938	      0.83335510	    -61.09361701	      5.71957819	    -16.32745615	     -0.34683218	      3.63466227	     11.22541466	      2.94139388	     -7.02040257	      0.62772970	    -17.77589576	      2.53249247	     -0.91946306	     -6.52685962	      4.28226062
      1.75816667	      0.07815149	      5.76907276	     -0.27729612	      1.45688243	      1.02181021	      0.28967942	     16.19529938	     -5.20826037	      0.64779424	    -60.53952051	      5.83243428	    -16.39471022	     -0.41998192	      3.20515571	     11.15207862	      3.26854132	     -6.75820930	      0.71786614	    -17.74550009	      2.48443229	     -0.93890858	     -6.42385364	      4.08450163
      1.76233333	      0.04900039	      5.67828840	      0.01650530	      1.46160794	      1.02218068	      0.28916550	     16.63642918	     -5.12748457	      0.46525563	    -59.95099601	      5.91888664	    -16.47134208	     -0.48689217	      2.77231772	     11.07275576	      3.60306002	     -6.48643217	      0.79873064	    -17.70983987	      2.44158283	     -0.94213322	     -6.32171242	      3.88238850
      1.76650000	      0.00520016	      5.59865098	      0.29553229	      1.46624712	      1.02246618	      0.28867421	     17.10311265	     -5.06597934	      0.29013857	    -59.36173702	      6.04832001	    -16.52091630	     -0.51186251	      2.38113624	     10.99887976	      3.88500281	     -6.24727792	      0.87275038	    -17.59288860	      2.42736317	     -0.94271204	     -6.22811417	      3.80726755
      1.77066667	      0.00598616	      5.52248293	      0.57682309	      1.47089214	      1.02281462	      0.28821198	     17.50211828	     -5.00415666	      0.12826308	    -58.72837737	      6.12829441	    -16.59501608	     -0.61072694	      1.91432914	     10.92738181	      4.26307028	     -5.95138092	      0.90775569	    -17.66767181	      2.36195834	     -0.98983471	     -6.16226343	      3.44273498
      1.77483333	     -0.03710700	      5.42502380	      0.85375624	      1.47557950	      1.02307526	      0.28775784	     17.93676688	     -4.92361277	     -0.03145206	    -58.06488358	      6.21415236	    -16.62010583	     -0.65047842	      1.51906201	     10.82449635	      4.54263604	     -5.71102527	      1.01254587	    -17.58929452	      2.33748780	     -0.97230428	     -6.05916475	      3.34780356
      1.77900000	     -0.05116713	      5.34878867	      1.11527972	      1.48021233	      1.02333585	      0.28733012	     18.33737480	     -4.86659483	     -0.17209998	    -57.38743530	      6.26901781	    -16.68219313	     -0.73217511	      1.09057586	     10.74408953	      4.88758881	     -5.45814046	      1.08993320	    -17.61484978	      2.28239458	     -1.00920103	     -5.97423652	      3.06997385
      1.78316667	     -0.08217672	      5.28456042	      1.37313930	      1.48487403	      1.02352603	      0.28692694	     18.75124265	     -4.82768019	     -0.30716301	    -56.69967781	      6.37180370	    -16.67432344	     -0.76329122	      0.68671333	     10.66649574	      5.13746752	     -5.20880697	      1.16070318	    -17.52180992	      2.26311943	     -1.00113946	     -5.90989252	      2.99343172
      1.78733333	     -0.08832728	      5.20727970	      1.62233629	      1.48949853	      1.02374970	      0.28654531	     19.12268439	     -4.77011997	     -0.42872713	    -55.96915932	      6.41799414	    -16.70483326	     -0.83624828	      0.24299765	     10.57328361	      5.45901237	     -4.92824659	      1.23467227	    -17.55401472	      2.21320954	     -1.04488301	     -5.82554888	      2.72824750
      1.79150000	     -0.11306765	      5.14059581	      1.86932430	      1.49415233	      1.02390251	      0.28617868	     19.50918404	     -4.73024430	     -0.54606170	    -55.22640442	      6.48691620	    -16.68619842	     -0.89346313	     -0.16978412	     10.48628849	      5.74836604	     -4.67485037	      1.31176137	    -17.53112803	      2.17148953	     -1.04851178	     -5.75565013	      2.57558040
      1.79566667	     -0.15048391	      5.08895321	      2.10715279	      1.49875837	      1.02398817	      0.28583975	     19.91147577	     -4.70571343	     -0.64545689	    -54.48756404	      6.57551391	    -16.65908012	     -0.91262426	     -0.55553869	     10.40951938	      5.98141040	     -4.43465678	      1.38558826	    -17.42257274	      2.15984429	     -1.05498872	     -5.70119184	      2.51680522
      1.79983333	     -0.15011453	      5.02900310	      2.34943021	      1.50336204	      1.02413538	      0.28551992	     20.24526965	     -4.66984146	     -0.73993493	    -53.68829231	      6.61102318	    -16.63867106	     -0.98089438	     -0.98971124	     10.32134780	      6.30593038	     -4.18383735	      1.43528587	    -17.48899677	      2.10458137	     -1.10888488	     -5.65551188	      2.22540505
      1.80400000	     -0.17933807	      4.97026859	      2.57531429	      1.50798948	      1.02420396	      0.28521647	     20.60726938	     -4.63854624	     -0.82256538	    -52.87379844	      6.66115355	    -16.57009339	     -1.00421677	     -1.38115701	     10.22907031	      6.53477078	     -3.94758266	      1.52458834	    -17.41078691	      2.08563800	     -1.10565542	     -5.59940730	      2.16619969
      1.80816667	     -0.17986114	      4.91672826	      2.78437381	      1.51263589	      1.02427653	      0.28494434	     20.92788150	     -4.60831450	     -0.88708457	    -52.04082439	      6.68461254	    -16.51908485	     -1.04533521	     -1.82423673	     10.13837230	      6.80796015	     -3.67407967	      1.60556899	    -17.42973810	      2.04748177	     -1.14199257	     -5.54684964	      1.98340305
      1.81233333	     -0.20414070	      4.87622514	      3.00440392	      1.51723643	      1.02427429	      0.28467616	     21.27011604	     -4.59801286	     -0.95198336	    -51.19701536	      6.72793728	    -16.43705838	     -1.07994005	     -2.22420695	     10.05886400	      7.07154000	     -3.42901410	      1.67698512	    -17.41458586	      2.00882056	     -1.15900857	     -5.51464857	      1.82924900
      1.81650000	     -0.24172540	      4.83404357	      3.22453502	      1.52184094	      1.02424020	      0.28442636	     21.61184237	     -4.58699167	     -1.01080289	    -50.32562211	      6.76567332	    -16.33704775	     -1.09368009	     -2.59410291	      9.97271440	      7.29746369	     -3.21411935	      1.75975399	    -17.32815239	      1.99120067	     -1.15911769	     -5.48204287	      1.75810416
